<mxfile host="app.diagrams.net" modified="2023-04-07T05:25:00.597Z" agent="Mozilla/5.0 (Windows NT 10.0; Win64; x64) AppleWebKit/537.36 (KHTML, like Gecko) Chrome/98.0.4758.139 Safari/537.36" version="21.1.4" etag="kra7VRX3n_Atv-uyxBNH" type="github">
  <diagram name="第 1 页" id="garyDqcfgm1-29M-yTkA">
    <mxGraphModel>
      <root>
        <mxCell id="0" />
        <mxCell id="1" parent="0" />
      </root>
    </mxGraphModel>
  </diagram>
</mxfile>
